<?xml version="1.0" encoding="UTF-8"?>
<svg xmlns="http://www.w3.org/2000/svg" id="Layer_1" data-name="Layer 1" viewBox="125.43 144.5 828.78 122.52">
  <defs>
    <style>.cls-1{font-size:54.89px;font-family:Times;letter-spacing:-0.01em;}.cls-1,.cls-7{fill:#e36036;}.cls-2{font-size:55.19px;font-family:TimesNewRomanPS-BoldMT, Times New Roman;font-weight:700;letter-spacing:-0.02em;}.cls-2,.cls-5,.cls-6{fill:#001f54;}.cls-3{letter-spacing:-0.07em;}.cls-4{letter-spacing:-0.05em;}.cls-5{font-size:54.14px;font-family:TimesNewRomanPS-ItalicMT, Times New Roman;font-style:italic;letter-spacing:-0.02em;}</style>
  </defs>
  <text class="cls-1" transform="translate(413.26 247.2)">
    <tspan xml:space="preserve"> HIGHER EDUCATION</tspan>
  </text>
  <text class="cls-2" transform="translate(358.52 194.22)">SOUTHERN<tspan class="cls-3" x="303.14" y="0"> </tspan><tspan x="313.07" y="0">ACADEM</tspan><tspan class="cls-4" x="556.45" y="0">Y</tspan></text>
  <text class="cls-5" transform="translate(361.39 244.2)">of</text>
  <path class="cls-6" d="M208.45,155.7c-.31.26-.61.56-.91.86a6.61,6.61,0,0,0-.7.7l.1-.09-.12.12a6.3,6.3,0,0,0-1.38,4.39,7.76,7.76,0,0,0,2.87,5.31,10.72,10.72,0,0,0,5.69,2.27,17.51,17.51,0,0,0,6.15-.56,13.38,13.38,0,0,0,4.74-2.09,7,7,0,0,0,2.6-3.56,5.18,5.18,0,0,0,2-3.13,3.85,3.85,0,0,0-.47-2.95,2.55,2.55,0,0,0-2.65-1.1,1.84,1.84,0,0,0-1.31,1.21,1.43,1.43,0,0,0,.61,1.61,1.18,1.18,0,0,0,1.6-.46c.05-.11.1-.24.21-.29s.35.1.44.27a3.5,3.5,0,0,1-.26,3.67,3,3,0,0,0-.14-1.15,1.87,1.87,0,0,0-1-1.18,1.56,1.56,0,1,0-.13,2.94c0,.7-.8,1.14-1.49,1.22a12.22,12.22,0,0,0-2.1.12c-.68.19-1.28.94-1,1.56a1.07,1.07,0,0,1-1.37-.56,1.76,1.76,0,0,1,.14-1.59,5.14,5.14,0,0,1,1.1-1.23,2.82,2.82,0,0,0-1.66,5.1,9.72,9.72,0,0,1-2.83.35,3.35,3.35,0,0,1-2.49-1.22,2.06,2.06,0,0,1,.11-2.62,2.4,2.4,0,0,0-2.06,3.07,4.07,4.07,0,0,1-1.26-3.1,1.58,1.58,0,0,1,1-1.56c.62-.15,1.2.33,1.66.77a5.24,5.24,0,0,0,.49-1.89,2.54,2.54,0,0,0-.61-1.82,2.5,2.5,0,0,0-3.43.09,4.09,4.09,0,0,0-1,3.55,12.2,12.2,0,0,0,1.34,3.56,8.56,8.56,0,0,1-1.08-8.49,4.78,4.78,0,0,0-2.16,5A10.28,10.28,0,0,1,208.45,155.7Z"></path>
  <path class="cls-6" d="M239.45,159.52a2,2,0,0,0-1,1.19,2.68,2.68,0,0,0-.14,1,3.49,3.49,0,0,1-.13-3.48c.09-.17.26-.35.44-.27s.16.18.21.29a1.17,1.17,0,0,0,1.6.46,1.43,1.43,0,0,0,.61-1.61,1.84,1.84,0,0,0-1.31-1.21A2.55,2.55,0,0,0,237,157a3.85,3.85,0,0,0-.47,2.95,5.27,5.27,0,0,0,1.89,3,7.12,7.12,0,0,0,2.63,3.65,13.4,13.4,0,0,0,4.75,2.08,17.26,17.26,0,0,0,6.15.56,10.7,10.7,0,0,0,5.68-2.26,7.71,7.71,0,0,0,2.87-5.31,6.29,6.29,0,0,0-1.37-4.39l-.12-.12.09.09a5.7,5.7,0,0,0-.69-.7,10.68,10.68,0,0,0-.92-.87,10.32,10.32,0,0,1,.74,7.16,4.76,4.76,0,0,0-2.15-5.05,8.55,8.55,0,0,1-1.09,8.48,11.94,11.94,0,0,0,1.35-3.56,4.07,4.07,0,0,0-1-3.54,2.51,2.51,0,0,0-3.43-.1,2.6,2.6,0,0,0-.61,1.82,5.29,5.29,0,0,0,.49,1.9c.46-.45,1.05-.93,1.67-.78a1.59,1.59,0,0,1,1,1.57,4,4,0,0,1-1.26,3.09,2.4,2.4,0,0,0-2.06-3.06,2,2,0,0,1,.11,2.61,3.34,3.34,0,0,1-2.48,1.23,10.07,10.07,0,0,1-2.83-.35,2.82,2.82,0,0,0-1.66-5.1,5.32,5.32,0,0,1,1.09,1.23,1.79,1.79,0,0,1,.15,1.59,1.09,1.09,0,0,1-1.38.56c.33-.62-.28-1.38-1-1.57a13.12,13.12,0,0,0-2.09-.12c-.7-.07-1.47-.51-1.49-1.21a1.56,1.56,0,1,0-.14-2.95Z"></path>
  <path class="cls-6" d="M245.79,244.36a8.27,8.27,0,0,1,3.58-5c1.69-1.23,3.6-2.15,5.23-3.47a14.5,14.5,0,0,0,2.4-2.49h0a28.72,28.72,0,0,0,6-15.08,4.83,4.83,0,0,1,.26,2.41,3.15,3.15,0,0,0-.07.92.73.73,0,0,0,.58.64c.54,0,.87-.7,1.41-.72s.76.61.65,1.09a5.68,5.68,0,0,1-.69,1.28,4.54,4.54,0,0,0-.28,2.69c0,.24.07.49.11.73.1.62.21,1.24.31,1.86a4.39,4.39,0,0,1-.43,1.46,4.73,4.73,0,0,1-3.86,2.59c-.58,0-1.37.12-1.44.7a.77.77,0,0,0,.6.77,2.54,2.54,0,0,0,1.06,0,25.18,25.18,0,0,1,6.66-.26c.57,0,1.27.24,1.38.8s-.37.92-.85,1.05a11.81,11.81,0,0,1-1.47.13,2.75,2.75,0,0,0-2.28,2.68A9.31,9.31,0,0,0,265,241a2.35,2.35,0,0,1-.17,1.86,5.27,5.27,0,0,0-7.58-4.22c-.17.09-.36.21-.39.4a.45.45,0,0,0,.38.48,1.68,1.68,0,0,0,.67,0,3.39,3.39,0,0,1,3.73,3.69,7.51,7.51,0,0,0-1.49-1.49,2.58,2.58,0,0,0-2-.48,1.58,1.58,0,0,0-1.26,1.48c0,.7.57,1.23,1,1.8s.59,1.46,0,1.87a13.62,13.62,0,0,1-3-2,10.61,10.61,0,0,0-1.67-1.68l-.06,0a4.81,4.81,0,0,0-3.55-1.07,3.6,3.6,0,0,0-2.75,5,2.24,2.24,0,0,0,1.7,1.42c.78.07,1.59-.66,1.41-1.41-.13-.54-.7-.89-.88-1.43a1.35,1.35,0,0,1,.68-1.52,2.07,2.07,0,0,1,1.74,0,3.16,3.16,0,0,1,1.15,4.61,3.77,3.77,0,0,1-4.9.8A4.73,4.73,0,0,1,245.79,244.36Z"></path>
  <path class="cls-6" d="M220.4,244.36a8.23,8.23,0,0,0-3.58-5c-1.69-1.23-3.59-2.15-5.22-3.47a15,15,0,0,1-2.41-2.49h0a28.7,28.7,0,0,1-6-15.08,4.84,4.84,0,0,0-.27,2.41,2.84,2.84,0,0,1,.07.92.72.72,0,0,1-.57.64c-.54,0-.87-.7-1.41-.72s-.77.61-.65,1.09a6.06,6.06,0,0,0,.68,1.28,4.46,4.46,0,0,1,.29,2.69c0,.24-.07.49-.11.73-.11.62-.21,1.24-.31,1.86a4.62,4.62,0,0,0,.42,1.46,4.76,4.76,0,0,0,3.87,2.59c.58,0,1.37.12,1.44.7a.78.78,0,0,1-.61.77,2.49,2.49,0,0,1-1.05,0,25.27,25.27,0,0,0-6.67-.26c-.57,0-1.27.24-1.37.8s.37.92.84,1.05a12.14,12.14,0,0,0,1.48.13,2.73,2.73,0,0,1,2.27,2.68,8.67,8.67,0,0,1-.4,1.87,2.39,2.39,0,0,0,.18,1.86,5.26,5.26,0,0,1,7.57-4.22c.18.09.37.21.4.4a.46.46,0,0,1-.38.48,1.68,1.68,0,0,1-.67,0,3.4,3.4,0,0,0-3.74,3.69,7.79,7.79,0,0,1,1.49-1.49,2.58,2.58,0,0,1,2-.48,1.58,1.58,0,0,1,1.27,1.48c0,.7-.58,1.23-1,1.8s-.59,1.46,0,1.87a13.86,13.86,0,0,0,3-2,11,11,0,0,1,1.66-1.68l.06,0a4.84,4.84,0,0,1,3.56-1.07,3.59,3.59,0,0,1,2.74,5,2.23,2.23,0,0,1-1.7,1.42c-.77.07-1.59-.66-1.4-1.41.13-.54.7-.89.87-1.43a1.35,1.35,0,0,0-.67-1.52,2.07,2.07,0,0,0-1.74,0,3.17,3.17,0,0,0-1.16,4.61,3.79,3.79,0,0,0,4.91.8A4.72,4.72,0,0,0,220.4,244.36Z"></path>
  <path class="cls-7" d="M265.73,197.08a54,54,0,0,0-7.09-25.63l-.27-.42-.47.19c-14.32,5.74-21.08-3.27-23.35-7.49l-.21-.36.67,1.2-.67-1.2-1.13-1.93-1.58,2.6c-2.43,4.34-9.21,12.78-23.18,7.18L208,171l-.27.42a54,54,0,0,0-7.09,25.63,49.71,49.71,0,0,0,6.2,24.91c5.26,9.67,13.88,18.52,25.62,26.32l.73.48.69-.45h0c11.76-7.8,20.4-16.67,25.67-26.35A49.82,49.82,0,0,0,265.73,197.08Zm-32.56,50.25c-20.81-13.8-31.64-31.15-31.33-50.17a53.23,53.23,0,0,1,6.64-24.62,22.62,22.62,0,0,0,10.79,1.63,16.26,16.26,0,0,0,7.8-3.07,21.1,21.1,0,0,0,6.07-7.3l0,.09,0-.09a21.1,21.1,0,0,0,6.07,7.3,16.26,16.26,0,0,0,7.8,3.07,22.62,22.62,0,0,0,10.79-1.63,53.33,53.33,0,0,1,6.64,24.56C264.74,210.4,259.48,229.88,233.17,247.33Z"></path>
  <path class="cls-6" d="M199.53,244.05a61.3,61.3,0,0,0-10.12.24h0a3.41,3.41,0,0,1-2.27-2.75,110.06,110.06,0,0,1-3.74-22.74,4.71,4.71,0,0,1,.58-2.66,38.75,38.75,0,0,0,4.52-25.67,3.93,3.93,0,0,1,.06-.66,33.56,33.56,0,0,1,7.86,6.56,8.68,8.68,0,0,1,1.33,2.52,9.87,9.87,0,0,0,4.8,5.36c.5.25,1.08.56,1.54.15s.2-1.22-.05-1.79a44.48,44.48,0,0,0-7.59-12.21c-1.53-1.7-3.46-3.08-4.65-5a4,4,0,0,1-.53-1.41l1.36-.25a36.28,36.28,0,0,0,11.87-5.07c.46-.29,1.08-.62.7-1.27s-1-.58-1.56-.64a9.42,9.42,0,0,0-6.66,1.5,6.71,6.71,0,0,1-2.22,1.16,25.26,25.26,0,0,1-3.51.64,6.64,6.64,0,0,0-.1-1.18,35.72,35.72,0,0,0-5.21-13.27c-.75-1.18-.55-1.58.31-2.29a15.26,15.26,0,0,1,5.95-3.3,3.39,3.39,0,0,0,2.47-3c.4-2.42-.34-3.38-2.58-3.34a16.63,16.63,0,0,1-7.64-1.38c-2-.92-3.84-.24-5.56.67-.72.38-1.09.3-1.76-.36a11.57,11.57,0,0,0-8-3.45c-2.41-.1-3.06,1.45-1.75,3.82a10,10,0,0,0,5,4.33,2.88,2.88,0,0,1,2,2.71,90.39,90.39,0,0,0,2.07,8.91,9.78,9.78,0,0,1-.57,6.66,44.92,44.92,0,0,1-5,8.26c-2.54,3.52-5,7.16-7.76,10.44-5.89,6.95-7.18,15.38-5.68,24.89.93,5.85,2.44,11.58,3.79,17.35a12.23,12.23,0,0,1-3.36,12.26c-3.53,3.61-7.76,6.06-12.13,8.28-6.16,3.13-12.74,5.32-18.76,8.79a4,4,0,0,0-1.55,1.16A131.22,131.22,0,0,0,140,263.42c8.29-2.54,16.39-5.55,23.57-10.68a23.46,23.46,0,0,0,7.18-8.14,19.92,19.92,0,0,0,2.36-10.72,11.79,11.79,0,0,0,4.56,2c.84.17,1,.82,1.19,1.53a27.44,27.44,0,0,1,.69,6.37c0,2.8,1.17,4.22,3.06,4.36h.58l22.92-.25,2,0C205.56,244.86,202.58,244.31,199.53,244.05Zm-17-88.38a.4.4,0,0,1-.4-.4.4.4,0,1,1,.8,0A.4.4,0,0,1,182.56,155.67Z"></path>
  <path class="cls-6" d="M339.79,265.85c-6-3.47-12.59-5.66-18.75-8.79-4.37-2.22-8.6-4.67-12.14-8.28a12.25,12.25,0,0,1-3.35-12.26c1.35-5.77,2.86-11.5,3.79-17.35,1.5-9.51.21-17.94-5.68-24.89-2.78-3.28-5.22-6.92-7.76-10.44a44.92,44.92,0,0,1-5-8.26,9.84,9.84,0,0,1-.58-6.66,87.69,87.69,0,0,0,2.08-8.91,2.88,2.88,0,0,1,2-2.71,10,10,0,0,0,5-4.33c1.31-2.37.66-3.92-1.75-3.82a11.57,11.57,0,0,0-8,3.45c-.67.66-1,.74-1.76.36-1.72-.91-3.59-1.59-5.56-.67a16.63,16.63,0,0,1-7.64,1.38c-2.24,0-3,.92-2.58,3.34a3.39,3.39,0,0,0,2.47,3,15.34,15.34,0,0,1,5.95,3.3c.86.71,1.06,1.11.31,2.29a35.72,35.72,0,0,0-5.21,13.27,6.84,6.84,0,0,0-.1,1.28,26.45,26.45,0,0,1-4.56-.74,6.71,6.71,0,0,1-2.22-1.16,9.41,9.41,0,0,0-6.66-1.5c-.58.06-1.26.13-1.56.64s.24,1,.7,1.27a36.28,36.28,0,0,0,11.87,5.07c.77.17,1.58.28,2.38.4a3.78,3.78,0,0,1-.5,1.26c-1.19,1.91-3.12,3.29-4.65,5a44.48,44.48,0,0,0-7.59,12.21c-.25.57-.61,1.29-.05,1.79s1,.1,1.54-.15a9.87,9.87,0,0,0,4.8-5.36,8.68,8.68,0,0,1,1.33-2.52,33.56,33.56,0,0,1,7.86-6.56,3.93,3.93,0,0,1,.06.66,38.75,38.75,0,0,0,4.52,25.67,4.71,4.71,0,0,1,.58,2.66,110.06,110.06,0,0,1-3.74,22.74,3.41,3.41,0,0,1-2.27,2.75h0a61.32,61.32,0,0,0-10.12-.24c-3.05.26-6,.81-8.58,3.77l2,0,22.92.25h.58c1.89-.14,3-1.56,3.06-4.36a27.44,27.44,0,0,1,.69-6.37c.17-.71.35-1.36,1.19-1.53a11.79,11.79,0,0,0,4.56-2,20,20,0,0,0,2.35,10.72,23.59,23.59,0,0,0,7.19,8.14c7.18,5.13,15.28,8.14,23.57,10.68A131.22,131.22,0,0,0,341.35,267,4.05,4.05,0,0,0,339.79,265.85ZM284.28,155.67a.41.41,0,0,1-.41-.4.42.42,0,0,1,.41-.41.41.41,0,0,1,.4.41A.4.4,0,0,1,284.28,155.67Z"></path>
  <path class="cls-6" d="M233.12,155.52l.1-.09-.11.09h-.06a.89.89,0,1,0,.07,0Z"></path>
  <path class="cls-6" d="M231.46,158.39c.19-.35.35-.6.27-.68s-.34,0-.67.3a2.44,2.44,0,0,0-.51.63,2.05,2.05,0,0,0-.24,1,1.68,1.68,0,0,0,.38,1.06,1.54,1.54,0,0,0,1.05.54,1.14,1.14,0,0,0,1.06-.53,1.24,1.24,0,0,0,.18-.53,1,1,0,0,0-.11-.54s-.12,0-.22,0-.17.12-.16.14a.61.61,0,0,1-.14.57.63.63,0,0,1-.25.16.57.57,0,0,1-.29,0,.86.86,0,0,1-.3-.12.9.9,0,0,1-.37-.51,1.64,1.64,0,0,1,0-.32,2.12,2.12,0,0,1,.11-.66A4.56,4.56,0,0,1,231.46,158.39Z"></path>
  <path class="cls-6" d="M233.56,160.73a1.16,1.16,0,0,0,.44.41,1.31,1.31,0,0,0,.61.12,1.54,1.54,0,0,0,1-.54,1.68,1.68,0,0,0,.38-1.06,2,2,0,0,0-.22-1,2.28,2.28,0,0,0-.5-.65c-.34-.31-.63-.41-.7-.33s.06.31.25.65a5.26,5.26,0,0,1,.27.58,1.84,1.84,0,0,1,.12.7,1.64,1.64,0,0,1,0,.32.9.9,0,0,1-.37.51.79.79,0,0,1-.3.12.57.57,0,0,1-.29,0,.54.54,0,0,1-.24-.16.59.59,0,0,1-.15-.57s-.06-.08-.16-.14-.19-.08-.22,0a1,1,0,0,0-.11.54A1.13,1.13,0,0,0,233.56,160.73Z"></path>
  <path class="cls-6" d="M239.07,145.33a.09.09,0,0,0-.07,0,3,3,0,0,0-1.34,2.12,2.12,2.12,0,0,0-1.63-.21.1.1,0,0,0-.07.09.08.08,0,0,0,.06.1,2.25,2.25,0,0,1,.95,1h0c.51.94-3.62,1.06-3.13,0a2.72,2.72,0,0,1,1.59-1,.11.11,0,0,0,.1-.08v0a.12.12,0,0,0-.05-.09,2.17,2.17,0,0,0-1.62-.3,3,3,0,0,0-.6-2.43.11.11,0,0,0-.15,0,3,3,0,0,0-.61,2.43,2.15,2.15,0,0,0-1.61.3.11.11,0,0,0,0,.11.09.09,0,0,0,.09.08,2.65,2.65,0,0,1,1.58,1c.51,1-3.66,1.06-3.12,0a2.25,2.25,0,0,1,1-1,.08.08,0,0,0,.06-.1.1.1,0,0,0-.07-.09,2.12,2.12,0,0,0-1.63.21,3,3,0,0,0-1.34-2.12.09.09,0,0,0-.07,0l1.26,3.87.55,1.7,8.23-.14.49-1.56h0Z"></path>
  <path class="cls-6" d="M231.61,153a2.39,2.39,0,0,1,.95,1.56h1a2.35,2.35,0,0,1,1-1.56,2.54,2.54,0,0,1,2-.41,2,2,0,0,0-2.18-.51,1,1,0,0,0-.7.84,2.93,2.93,0,0,0-.52-1.44v0h0v0a2.93,2.93,0,0,0-.52,1.44,1,1,0,0,0-.7-.84,2,2,0,0,0-2.18.51A2.54,2.54,0,0,1,231.61,153Z"></path>
  <path class="cls-6" d="M232.4,201.17a2.34,2.34,0,0,1,.45.34c.1.13-.66.11-.66.11Z"></path>
  <path class="cls-6" d="M237.79,188c-1.14.27-2.27.55-3.4.86-.39.11-.81.23-1.13-.07-.43.37-.9.14-1.34,0l-6.21-1.53c-.35-.09-.87-.42-1,.22s.37.75.9.8a10.2,10.2,0,0,1,7.6,4.53,10.29,10.29,0,0,1,4.06-3.54c.27-.16.57-.25.84-.4s.53-.38.4-.73S238,187.9,237.79,188Z"></path>
  <path class="cls-6" d="M262.94,197.59a50.57,50.57,0,0,0-6.28-23.22l-.15-.27-.29.11a20.82,20.82,0,0,1-10,1.51,14.82,14.82,0,0,1-7.14-2.82,19.39,19.39,0,0,1-5.59-6.72l-.33-.65,0-.05h0l-.35.7a19.39,19.39,0,0,1-5.59,6.72,14.86,14.86,0,0,1-7.14,2.82,20.82,20.82,0,0,1-10-1.51l-.29-.11-.15.27a50.74,50.74,0,0,0-6.28,23.28c-.29,18,9.93,34.36,29.57,47.39l.19.13.2-.13C258.21,228.57,263.16,210.15,262.94,197.59Zm-12.42,26.12a.48.48,0,0,1-.48.47H234.56a.17.17,0,0,1-.16.12H232a.17.17,0,0,1-.16-.12H216.31a.47.47,0,0,1-.48-.47V202.87a.47.47,0,0,1,.48-.48h15.47a.17.17,0,0,1,.17-.13h2.45a.17.17,0,0,1,.17.13H250a.48.48,0,0,1,.48.48ZM244.29,186c-.79.19-1.19.46-1.08,1.35a3.91,3.91,0,0,1-.09,2.32c-.35.52-1.37,0-2.1.1-1.66.17-2.21.66-1.61,2.22s.37,3.39.53,5.08c0,.31,0,.62,0,.93,0,.59-.23.95-.83.93a.8.8,0,0,1-.83-1,3.83,3.83,0,0,1,.14-1.43,11.47,11.47,0,0,0,.06-3.46,4.61,4.61,0,0,0,.43-1.77c-.07-1.08-.09-1.12-1.09-.6a13.82,13.82,0,0,0-4,3.39c-.17.21-.37.39-.55.59h0c-.63-.16-.84-.76-1.21-1.17-2-2.2-4.35-3.83-7.52-3.75-1.4,0-1.4,0-1.4-1.4,0-2.06,0-2.08-2-2.59-2.22-.58-4.44-1.13-6.77-1.73a4.38,4.38,0,0,1,1.83-.6c5.47-1.4,10.94-2.77,16.42-4.15a5.78,5.78,0,0,1,.6-.08l16.81,4.2a8,8,0,0,1,1.85.65C249.39,184.75,246.85,185.43,244.29,186Z"></path>
  <rect class="cls-6" x="216.56" y="202.65" width="0.12" height="21.25"></rect>
  <rect class="cls-6" x="216.77" y="202.65" width="0.07" height="21.25"></rect>
  <rect class="cls-6" x="216.94" y="202.65" width="0.1" height="21.25"></rect>
  <rect class="cls-6" x="217.14" y="202.65" width="0.08" height="21.25"></rect>
  <rect class="cls-6" x="217.3" y="202.65" width="0.08" height="21.25"></rect>
  <rect class="cls-6" x="217.45" y="202.65" width="0.07" height="21.25"></rect>
  <rect class="cls-6" x="217.57" y="202.65" width="0.04" height="21.25"></rect>
  <path class="cls-6" d="M217.61,223.9h15.56s-5.11-.13-6.83-.13C224.16,223.77,217.61,223.9,217.61,223.9Z"></path>
  <rect class="cls-6" x="249.68" y="202.65" width="0.12" height="21.25"></rect>
  <rect class="cls-6" x="249.51" y="202.65" width="0.07" height="21.25"></rect>
  <rect class="cls-6" x="249.32" y="202.65" width="0.1" height="21.25"></rect>
  <rect class="cls-6" x="249.13" y="202.65" width="0.08" height="21.25"></rect>
  <rect class="cls-6" x="248.97" y="202.65" width="0.08" height="21.25"></rect>
  <rect class="cls-6" x="248.84" y="202.65" width="0.07" height="21.25"></rect>
  <rect class="cls-6" x="248.74" y="202.65" width="0.05" height="21.25"></rect>
  <path class="cls-6" d="M233.18,223.9h15.56s-8.22-.1-11-.1C236.65,223.8,233.31,223.9,233.18,223.9Z"></path>
  <path class="cls-6" d="M230.67,202.6c-1.31,0-2.8,0-3.55,0-2.37,0-9.51.1-9.51.1h13.06Z"></path>
  <path class="cls-6" d="M233.17,202.65l-1.49,0v0Z"></path>
  <path class="cls-6" d="M248.74,202.65s-8.41-.1-11.21-.1c-1.09,0-4.36.1-4.36.1V223.9h0V202.65Z"></path>
  <path class="cls-6" d="M231.69,202.47a1.26,1.26,0,0,0-.47-.06,1.48,1.48,0,0,0-.53.08s0,0,0,.11l1,0C231.69,202.53,231.69,202.47,231.69,202.47Z"></path>
  <path class="cls-6" d="M230.32,206.91c-.14,2.91-.39,6.89-.41,7.29,0,0,.05,0,.05,0a1.1,1.1,0,0,1,.49-.11,1,1,0,0,1,.53.11s.18-4,.37-7.31c.11-2.1.27-3.74.32-4.27h-1C230.6,203.15,230.41,204.75,230.32,206.91Z"></path>
</svg>
